<?xml version="1.0" standalone="no"?>
<!DOCTYPE svg PUBLIC "-//W3C//DTD SVG 20010904//EN"
 "http://www.w3.org/TR/2001/REC-SVG-20010904/DTD/svg10.dtd">
<svg version="1.0" xmlns="http://www.w3.org/2000/svg"
 width="512.000000pt" height="512.000000pt" viewBox="0 0 512.000000 512.000000"
 preserveAspectRatio="xMidYMid meet">
<metadata>
Created by potrace 1.14, written by Peter Selinger 2001-2017
</metadata>
<g transform="translate(0.000000,512.000000) scale(0.100000,-0.100000)"
fill="#000000" stroke="none">
<path d="M1875 4971 c-60 -12 -91 -27 -152 -74 -151 -117 -298 -415 -397 -808
l-34 -134 -68 2 c-85 2 -233 35 -329 72 -131 51 -200 97 -326 217 -145 141
-196 168 -309 168 -81 1 -134 -19 -177 -66 -70 -76 -92 -204 -53 -318 53 -159
199 -371 361 -525 429 -407 1068 -621 1953 -654 595 -23 1213 54 1616 199 335
121 583 271 790 479 129 129 224 255 289 382 56 110 75 188 68 275 -11 147
-130 246 -276 231 -91 -10 -163 -54 -291 -179 -100 -98 -129 -120 -218 -166
-130 -66 -371 -129 -462 -120 l-33 3 -24 100 c-95 398 -244 708 -403 840 -75
63 -121 78 -235 78 -121 -1 -213 -22 -389 -93 -68 -27 -146 -52 -173 -56 -66
-8 -146 9 -273 62 -176 72 -351 104 -455 85z"/>
<path d="M1741 2710 c-129 -31 -232 -210 -232 -398 0 -143 42 -255 127 -338
83 -81 184 -95 280 -39 104 61 174 214 174 383 0 245 -170 436 -349 392z"/>
<path d="M3270 2711 c-144 -44 -240 -208 -240 -409 0 -364 331 -540 505 -268
119 186 97 468 -47 608 -65 64 -149 90 -218 69z"/>
<path d="M1466 1474 c-29 -28 -18 -64 41 -142 208 -277 519 -469 847 -524 106
-18 334 -15 440 6 324 63 616 248 819 518 59 78 70 114 41 142 -25 26 -58 19
-131 -29 -191 -127 -474 -237 -718 -280 -109 -19 -348 -22 -460 -5 -243 35
-509 136 -729 274 -92 58 -124 67 -150 40z"/>
</g>
</svg>
